# xmcd
#
# Track frame offsets:
# 150
# 29208
# 47085
# 63995
# 85354
# 102616
# 121810
# 137763
# 157093
# 172281
# 199571
# 214738
# 228087
# 245283
#
# Disc length: 3511 seconds
#
# Revision: 0
# Processed by: cddbd v1.5.1PL0 Copyright (c) Steve Scherf et al.
# Submitted via: plextools 2.24b
#
DISCID=cb0db50e
DTITLE=The Gourds - Pour House - Raleigh, NC - June 7, 2005 (D1)
DYEAR=2005
DGENRE=Country
TTITLE0=The Gourds - Web (Before You Walk Into It)
TTITLE1=The Gourds - Tex-Mex Tattoo Pakistani Package Mile
TTITLE2=The Gourds - Hellhounds
TTITLE3=The Gourds - My Name Is Jorge
TTITLE4=The Gourds - Gangsta Lean
TTITLE5=The Gourds - Omaha
TTITLE6=The Gourds - TTT Gas
TTITLE7=The Gourds - Pushed Her Down
TTITLE8=The Gourds - On Time
TTITLE9=The Gourds - Yoli Find The Possum
TTITLE10=The Gourds - Plaid Coat
TTITLE11=The Gourds - Mr. Betty
TTITLE12=The Gourds - Weather Woman
TTITLE13=The Gourds - Declineameter
EXTD=
EXTT0=
EXTT1=
EXTT2=
EXTT3=
EXTT4=
EXTT5=
EXTT6=
EXTT7=
EXTT8=
EXTT9=
EXTT10=
EXTT11=
EXTT12=
EXTT13=
PLAYORDER=
